<?xml version="1.0" standalone="no"?><!DOCTYPE svg PUBLIC "-//W3C//DTD SVG 1.1//EN" "http://www.w3.org/Graphics/SVG/1.1/DTD/svg11.dtd"><svg t="1669259255061" class="icon" viewBox="0 0 1024 1024" version="1.1" xmlns="http://www.w3.org/2000/svg" p-id="3841" xmlns:xlink="http://www.w3.org/1999/xlink" width="200" height="200"><path d="M1002.666667 874.666667v128h-128v-128h128zM149.333333 938.666667v64H21.333333v-128h128v64zM149.333333 85.333333v64H21.333333V21.333333h128v64zM1002.666667 21.333333v128h-128V21.333333h128z" fill="#1676C4" p-id="3842"></path><path d="M896 42.666667h85.333333v85.333333h-85.333333zM42.666667 42.666667h85.333333v85.333333H42.666667zM896 896h85.333333v85.333333h-85.333333zM42.666667 896h85.333333v85.333333H42.666667zM810.666667 192v469.333333L597.333333 448l-170.666666 170.666667-85.333334-85.333334-149.333333 149.333334V192z m-405.333334 149.333333a42.666667 42.666667 0 1 0-42.666666 42.666667 42.794667 42.794667 0 0 0 42.666666-42.666667z" fill="#00A6FF" p-id="3843"></path><path d="M426.666667 618.666667l170.666666-170.666667 213.333334 213.333333v149.333334H192v-128l149.333333-149.333334 85.333334 85.333334z" fill="#FFB13B" p-id="3844"></path><path d="M362.666667 341.333333m-42.666667 0a42.666667 42.666667 0 1 0 85.333333 0 42.666667 42.666667 0 1 0-85.333333 0Z" fill="#FFB13B" p-id="3845"></path><path d="M597.333333 277.333333m21.333334 0l64 0q21.333333 0 21.333333 21.333334l0 0q0 21.333333-21.333333 21.333333l-64 0q-21.333333 0-21.333334-21.333333l0 0q0-21.333333 21.333334-21.333334Z" fill="#D6FBFD" p-id="3846"></path><path d="M661.333333 426.666667m21.333334 0l64 0q21.333333 0 21.333333 21.333333l0 0q0 21.333333-21.333333 21.333333l-64 0q-21.333333 0-21.333334-21.333333l0 0q0-21.333333 21.333334-21.333333Z" fill="#D6FBFD" p-id="3847"></path><path d="M448 362.666667m21.333333 0l64 0q21.333333 0 21.333334 21.333333l0 0q0 21.333333-21.333334 21.333333l-64 0q-21.333333 0-21.333333-21.333333l0 0q0-21.333333 21.333333-21.333333Z" fill="#D6FBFD" p-id="3848"></path><path d="M874.666667 149.333333V85.333333H149.333333v64H85.333333v725.333334h64v64h725.333334v-64h64V149.333333z m-64 661.333334H192V192h618.666667z" fill="#F7F7F7" p-id="3849"></path><path d="M1002.666667 0h-128a21.333333 21.333333 0 0 0-21.333334 21.333333v42.666667h-21.333333v42.666667h21.333333v42.666666a21.333333 21.333333 0 0 0 21.333334 21.333334h42.666666v21.333333h42.666667V170.666667h42.666667a21.333333 21.333333 0 0 0 21.333333-21.333334V21.333333a21.333333 21.333333 0 0 0-21.333333-21.333333z m-21.333334 128h-85.333333V42.666667h85.333333zM21.333333 170.666667h42.666667v21.333333h42.666667V170.666667h42.666666a21.333333 21.333333 0 0 0 21.333334-21.333334V106.666667h21.333333V64H170.666667V21.333333a21.333333 21.333333 0 0 0-21.333334-21.333333H21.333333a21.333333 21.333333 0 0 0-21.333333 21.333333v128a21.333333 21.333333 0 0 0 21.333333 21.333334z m21.333334-128h85.333333v85.333333H42.666667zM1002.666667 853.333333h-42.666667v-21.333333h-42.666667v21.333333h-42.666666a21.333333 21.333333 0 0 0-21.333334 21.333334v42.666666h-21.333333v42.666667h21.333333v42.666667a21.333333 21.333333 0 0 0 21.333334 21.333333h128a21.333333 21.333333 0 0 0 21.333333-21.333333v-128a21.333333 21.333333 0 0 0-21.333333-21.333334z m-21.333334 128h-85.333333v-85.333333h85.333333zM170.666667 874.666667a21.333333 21.333333 0 0 0-21.333334-21.333334H106.666667v-21.333333H64v21.333333H21.333333a21.333333 21.333333 0 0 0-21.333333 21.333334v128a21.333333 21.333333 0 0 0 21.333333 21.333333h128a21.333333 21.333333 0 0 0 21.333334-21.333333v-42.666667h21.333333v-42.666667H170.666667z m-42.666667 106.666666H42.666667v-85.333333h85.333333zM661.333333 64h42.666667v42.666667h-42.666667zM576 64h42.666667v42.666667h-42.666667zM320 64h42.666667v42.666667h-42.666667zM405.333333 64h42.666667v42.666667h-42.666667zM234.666667 64h42.666666v42.666667h-42.666666zM490.666667 64h42.666666v42.666667h-42.666666zM746.666667 64h42.666666v42.666667h-42.666666zM405.333333 917.333333h42.666667v42.666667h-42.666667zM320 917.333333h42.666667v42.666667h-42.666667zM234.666667 917.333333h42.666666v42.666667h-42.666666zM746.666667 917.333333h42.666666v42.666667h-42.666666zM661.333333 917.333333h42.666667v42.666667h-42.666667zM490.666667 917.333333h42.666666v42.666667h-42.666666zM576 917.333333h42.666667v42.666667h-42.666667zM917.333333 490.666667h42.666667v42.666666h-42.666667zM917.333333 405.333333h42.666667v42.666667h-42.666667zM917.333333 320h42.666667v42.666667h-42.666667zM917.333333 234.666667h42.666667v42.666666h-42.666667zM917.333333 746.666667h42.666667v42.666666h-42.666667zM917.333333 661.333333h42.666667v42.666667h-42.666667zM917.333333 576h42.666667v42.666667h-42.666667zM64 576h42.666667v42.666667H64zM64 320h42.666667v42.666667H64zM64 405.333333h42.666667v42.666667H64zM64 490.666667h42.666667v42.666666H64zM64 234.666667h42.666667v42.666666H64zM64 746.666667h42.666667v42.666666H64zM64 661.333333h42.666667v42.666667H64zM832 405.333333h-42.666667v204.501334l-176.917333-176.917334a21.333333 21.333333 0 0 0-30.165333 0L426.666667 588.501333l-70.250667-70.250666a21.333333 21.333333 0 0 0-30.165333 0L213.333333 631.168V213.333333h576v64h42.666667V192a21.333333 21.333333 0 0 0-21.333333-21.333333H192a21.333333 21.333333 0 0 0-21.333333 21.333333v618.666667a21.333333 21.333333 0 0 0 21.333333 21.333333h128v-42.666667h-106.666667v-97.834666l128-128L396.501333 618.666667l-48.917333 48.917333 30.165333 30.165333L597.333333 478.165333l192 192V789.333333H362.666667v42.666667h448a21.333333 21.333333 0 0 0 21.333333-21.333333z" p-id="3850"></path><path d="M789.333333 320h42.666667v42.666667h-42.666667zM298.666667 341.333333a64 64 0 1 0 64-64 64 64 0 0 0-64 64z m85.333333 0a21.333333 21.333333 0 1 1-21.333333-21.333333 21.333333 21.333333 0 0 1 21.333333 21.333333z" p-id="3851"></path></svg>